<svg xmlns="http://www.w3.org/2000/svg" viewBox="0 0 48 48"><path fill="#12B7F5" d="M24,4C12.954,4,4,12.954,4,24s8.954,20,20,20s20-8.954,20-20S35.046,4,24,4z M36.071,32.143 c-0.232,0.732-0.732,1.464-1.929,2.196c0,0-2.196,1.732-6.321-0.268c0,0-1.464,0.732-1.929,0.732s-1.196-0.268-1.196-0.268 c-0.732,1.464-1.929,2.196-3.393,2.196s-2.661-0.732-3.393-2.196c0,0-0.732,0.268-1.196,0.268s-1.929-0.732-1.929-0.732 c-4.125,2-6.321,0.268-6.321,0.268c-1.196-0.732-1.696-1.464-1.929-2.196c0,0-0.268-0.732,0.732-2.929 c0,0,1.196-2.196,1.929-2.929c-1.196-2.929-1.196-5.857,0-8.786c0.232-0.732,1.196-2.929,3.393-4.857 c1.696-1.464,3.857-2.196,6.054-2.196s4.357,0.732,6.054,2.196c2.196,1.929,3.161,4.125,3.393,4.857 c1.196,2.929,1.196,5.857,0,8.786c0.732,0.732,1.929,2.929,1.929,2.929C36.339,31.411,36.071,32.143,36.071,32.143z"/></svg>