<svg xmlns="http://www.w3.org/2000/svg" viewBox="0 0 48 48"><path fill="#00DC72" d="M37.029,27.158c-2.203,0-4.403,0.513-6.38,1.469c-0.354,0.171-0.692,0.354-1.028,0.551 c-3.43,1.962-5.724,5.314-5.724,9.121c0,5.886,5.854,10.701,13.132,10.701s13.132-4.815,13.132-10.701S44.307,27.158,37.029,27.158z M31.371,34.646c-0.354,0-0.692-0.171-0.869-0.513c-0.177-0.342-0.177-0.684,0-1.026l0.692-1.197 c0.177-0.342,0.515-0.513,0.869-0.513s0.692,0.171,0.869,0.513l0.692,1.197c0.177,0.342,0.177,0.684,0,1.026 C32.063,34.475,31.725,34.646,31.371,34.646z M42.688,34.646c-0.354,0-0.692-0.171-0.869-0.513c-0.177-0.342-0.177-0.684,0-1.026 l0.692-1.197c0.177-0.342,0.515-0.513,0.869-0.513s0.692,0.171,0.869,0.513l0.692,1.197c0.177,0.342,0.177,0.684,0,1.026 C43.38,34.475,43.042,34.646,42.688,34.646z"/><path fill="#00DC72" d="M24.083,0C10.791,0,0,9.189,0,20.506c0,6.429,3.713,12.193,9.478,15.89l-2.374,7.124 c-0.177,0.513,0,1.026,0.354,1.368C7.635,44.888,7.812,45,8.166,45c0.177,0,0.354-0.057,0.515-0.114l8.963-5.144 c2.02,0.57,4.228,0.855,6.439,0.855c13.292,0,24.083-9.189,24.083-20.506C48.166,9.189,37.375,0,24.083,0z M15.321,15.362 c-0.692,0-1.207-0.513-1.207-1.197v-2.394c0-0.684,0.515-1.197,1.207-1.197s1.207,0.513,1.207,1.197v2.394 C16.528,14.849,16.013,15.362,15.321,15.362z M32.845,15.362c-0.692,0-1.207-0.513-1.207-1.197v-2.394 c0-0.684,0.515-1.197,1.207-1.197s1.207,0.513,1.207,1.197v2.394C34.052,14.849,33.537,15.362,32.845,15.362z"/></svg>